<svg xmlns="http://www.w3.org/2000/svg" width="800" height="420">
  <rect width="100%" height="100%" fill="#f9f9f9"/>
  <line x1="0" y1="280" x2="800.0" y2="280" stroke="#ddd" stroke-width="1"/>
  <g transform="translate(10.0,280) scale(0.18,-0.18)"><path d="M30 0C30 343 230 343 230 0H178C178 284 82 284 82 0H30ZM230 0C230 -343 430 -343 430 0H378C378 -284 282 -284 282 0H230ZM430 0C430 343 630 343 630 0H578C578 284 482 284 482 0H430Z" fill="#2255aa"/></g><text x="69.4" y="310" text-anchor="middle" font-family="monospace" font-size="13" fill="#888">а</text><g transform="translate(140.8,280) scale(0.18,-0.18)"><path d="M30 0C30 -343 230 -343 230 0H178C178 -284 82 -284 82 0H30ZM230 0C230 -343 430 -343 430 0H378C378 -284 282 -284 282 0H230ZM430 0C430 -343 630 -343 630 0H578C578 -284 482 -284 482 0H430Z" fill="#2255aa"/></g><text x="200.2" y="310" text-anchor="middle" font-family="monospace" font-size="13" fill="#888">я</text><g transform="translate(271.6,280) scale(0.18,-0.18)"><path d="M30 0C30 343 190 343 190 0H138C138 284 82 284 82 0H30ZM210 0C210 343 370 343 370 0H318C318 284 262 284 262 0H210ZM370 0C370 343 530 343 530 0H478C478 284 422 284 422 0H370ZM550 0C550 343 710 343 710 0H658C658 284 602 284 602 0H550ZM710 0C710 343 870 343 870 0H818C818 284 762 284 762 0H710ZM890 0C890 343 1050 343 1050 0H998C998 284 942 284 942 0H890Z" fill="#2255aa"/></g><text x="368.8" y="310" text-anchor="middle" font-family="monospace" font-size="13" fill="#888">ю</text><g transform="translate(478.0,280) scale(0.18,-0.18)"><path d="M30 0C30 343 230 343 230 0H178C178 284 82 284 82 0H30ZM230 0C230 343 430 343 430 0H378C378 284 282 284 282 0H230ZM430 0C430 -343 630 -343 630 0H578C578 -284 482 -284 482 0H430ZM630 0C630 343 830 343 830 0H778C778 284 682 284 682 0H630Z" fill="#2255aa"/></g><text x="555.4" y="310" text-anchor="middle" font-family="monospace" font-size="13" fill="#888">и</text><g transform="translate(644.8,280) scale(0.18,-0.18)"><path d="M30 0C30 343 190 343 190 0H138C138 284 82 284 82 0H30ZM210 0C210 343 370 343 370 0H318C318 284 262 284 262 0H210ZM370 0C370 343 530 343 530 0H478C478 284 422 284 422 0H370ZM550 0C550 343 710 343 710 0H658C658 284 602 284 602 0H550Z" fill="#2255aa"/></g><text x="711.4" y="310" text-anchor="middle" font-family="monospace" font-size="13" fill="#888">т</text>
</svg>