<svg xmlns="http://www.w3.org/2000/svg" width="2899" height="340">
  <rect width="100%" height="100%" fill="#f0f4ff"/>
  <line x1="0" y1="200" x2="2899.2" y2="200" stroke="#c8d0e8" stroke-width="1" stroke-dasharray="4,4"/>
  <g transform="translate(15.0,200) scale(0.3,-0.3)"><path d="M10 0C10 343 160 343 160 0H108C108 284 62 284 62 0H10ZM184 0C184 343 334 343 334 0H282C282 284 236 284 236 0H184Z" fill="#1a3a6e"/></g><g transform="translate(130.2,200) scale(0.3,-0.3)"><path d="M10 0C10 343 230 343 230 0H178C178 284 62 284 62 0H10Z" fill="#1a3a6e"/></g><g transform="translate(202.2,200) scale(0.3,-0.3)"><path d="M10 0C10 -343 230 -343 230 0H178C178 -284 62 -284 62 0H10Z" fill="#1a3a6e"/></g><g transform="translate(274.2,200) scale(0.3,-0.3)"><path d="M10 -26H90V26H10Z" fill="#1a3a6e"/></g><g transform="translate(304.2,200) scale(0.3,-0.3)"><path d="M10 0C10 343 160 343 160 0H108C108 284 62 284 62 0H10ZM184 0C184 343 334 343 334 0H282C282 284 236 284 236 0H184Z" fill="#1a3a6e"/></g><g transform="translate(419.4,200) scale(0.3,-0.3)"><path d="M10 0C10 -343 230 -343 230 0H178C178 -284 62 -284 62 0H10Z" fill="#1a3a6e"/></g><g transform="translate(491.4,200) scale(0.3,-0.3)"><path d="M10 0C10 -343 230 -343 230 0H178C178 -284 62 -284 62 0H10Z" fill="#1a3a6e"/></g><g transform="translate(563.4,200) scale(0.3,-0.3)"><path d="M10 -26H90V26H10Z" fill="#1a3a6e"/></g><g transform="translate(593.4,200) scale(0.3,-0.3)"><path d="M10 0C10 343 230 343 230 0H178C178 284 62 284 62 0H10Z" fill="#1a3a6e"/></g><g transform="translate(665.4,200) scale(0.3,-0.3)"><path d="M10 0C10 343 230 343 230 0H178C178 284 62 284 62 0H10Z" fill="#1a3a6e"/></g><g transform="translate(737.4,200) scale(0.3,-0.3)"><path d="M10 0C10 -343 230 -343 230 0H178C178 -284 62 -284 62 0H10Z" fill="#1a3a6e"/></g><g transform="translate(809.4,200) scale(0.3,-0.3)"><path d="M10 0C10 343 230 343 230 0H178C178 284 62 284 62 0H10Z" fill="#1a3a6e"/></g><g transform="translate(881.4,200) scale(0.3,-0.3)"><path d="M10 -26H90V26H10Z" fill="#1a3a6e"/></g><g transform="translate(911.4,200) scale(0.3,-0.3)"><path d="M10 0C10 343 230 343 230 0H178C178 284 62 284 62 0H10Z" fill="#1a3a6e"/></g><g transform="translate(983.4,200) scale(0.3,-0.3)"><path d="M10 0C10 -343 230 -343 230 0H178C178 -284 62 -284 62 0H10Z" fill="#1a3a6e"/></g><g transform="translate(1055.4,200) scale(0.3,-0.3)"><path d="M10 0C10 343 230 343 230 0H178C178 284 62 284 62 0H10Z" fill="#1a3a6e"/></g><g transform="translate(1127.4,200) scale(0.3,-0.3)"><path d="M10 0C10 -343 230 -343 230 0H178C178 -284 62 -284 62 0H10Z" fill="#1a3a6e"/></g><g transform="translate(1199.4,200) scale(0.3,-0.3)"><path d="M10 -26H90V26H10Z" fill="#1a3a6e"/></g><g transform="translate(1229.4,200) scale(0.3,-0.3)"><path d="M10 0C10 343 230 343 230 0H178C178 284 62 284 62 0H10Z" fill="#1a3a6e"/></g><g transform="translate(1301.4,200) scale(0.3,-0.3)"><path d="M10 0C10 343 230 343 230 0H178C178 284 62 284 62 0H10Z" fill="#1a3a6e"/></g><g transform="translate(1373.4,200) scale(0.3,-0.3)"><path d="M10 0C10 -343 230 -343 230 0H178C178 -284 62 -284 62 0H10Z" fill="#1a3a6e"/></g><g transform="translate(1445.4,200) scale(0.3,-0.3)"><path d="M10 -26H90V26H10Z" fill="#1a3a6e"/></g><g transform="translate(1475.4,200) scale(0.3,-0.3)"><path d="M10 0C10 343 160 343 160 0H108C108 284 62 284 62 0H10ZM184 0C184 343 334 343 334 0H282C282 284 236 284 236 0H184Z" fill="#1a3a6e"/></g><g transform="translate(1590.6,200) scale(0.3,-0.3)"><path d="M10 0C10 343 160 343 160 0H108C108 284 62 284 62 0H10ZM184 0C184 343 334 343 334 0H282C282 284 236 284 236 0H184Z" fill="#1a3a6e"/></g><g transform="translate(1771.8,200) scale(0.3,-0.3)"><path d="M10 0C10 343 160 343 160 0H108C108 284 62 284 62 0H10ZM184 0C184 343 334 343 334 0H282C282 284 236 284 236 0H184Z" fill="#1a3a6e"/></g><g transform="translate(1887.0,200) scale(0.3,-0.3)"><path d="M10 0C10 343 230 343 230 0H178C178 284 62 284 62 0H10Z" fill="#1a3a6e"/></g><g transform="translate(1959.0,200) scale(0.3,-0.3)"><path d="M10 -26H90V26H10Z" fill="#1a3a6e"/></g><g transform="translate(1989.0,200) scale(0.3,-0.3)"><path d="M10 0C10 343 230 343 230 0H178C178 284 62 284 62 0H10Z" fill="#1a3a6e"/></g><g transform="translate(2061.0,200) scale(0.3,-0.3)"><path d="M10 0C10 343 230 343 230 0H178C178 284 62 284 62 0H10Z" fill="#1a3a6e"/></g><g transform="translate(2133.0,200) scale(0.3,-0.3)"><path d="M10 0C10 343 160 343 160 0H108C108 284 62 284 62 0H10ZM184 0C184 343 334 343 334 0H282C282 284 236 284 236 0H184Z" fill="#1a3a6e"/></g><g transform="translate(2248.2,200) scale(0.3,-0.3)"><path d="M10 0C10 -343 230 -343 230 0H178C178 -284 62 -284 62 0H10Z" fill="#1a3a6e"/></g><g transform="translate(2320.2,200) scale(0.3,-0.3)"><path d="M10 -26H90V26H10Z" fill="#1a3a6e"/></g><g transform="translate(2350.2,200) scale(0.3,-0.3)"><path d="M10 0C10 -343 230 -343 230 0H178C178 -284 62 -284 62 0H10Z" fill="#1a3a6e"/></g><g transform="translate(2422.2,200) scale(0.3,-0.3)"><path d="M10 0C10 -343 230 -343 230 0H178C178 -284 62 -284 62 0H10Z" fill="#1a3a6e"/></g><g transform="translate(2494.2,200) scale(0.3,-0.3)"><path d="M10 0C10 343 230 343 230 0H178C178 284 62 284 62 0H10Z" fill="#1a3a6e"/></g><g transform="translate(2566.2,200) scale(0.3,-0.3)"><path d="M10 0C10 343 230 343 230 0H178C178 284 62 284 62 0H10Z" fill="#1a3a6e"/></g><g transform="translate(2638.2,200) scale(0.3,-0.3)"><path d="M10 -26H90V26H10Z" fill="#1a3a6e"/></g><g transform="translate(2668.2,200) scale(0.3,-0.3)"><path d="M10 0C10 343 230 343 230 0H178C178 284 62 284 62 0H10Z" fill="#1a3a6e"/></g><g transform="translate(2740.2,200) scale(0.3,-0.3)"><path d="M10 0C10 -343 230 -343 230 0H178C178 -284 62 -284 62 0H10Z" fill="#1a3a6e"/></g><g transform="translate(2812.2,200) scale(0.3,-0.3)"><path d="M10 0C10 343 230 343 230 0H178C178 284 62 284 62 0H10Z" fill="#1a3a6e"/></g>
</svg>