<svg xmlns="http://www.w3.org/2000/svg" width="2179" height="420">
  <rect width="100%" height="100%" fill="#f0f4ff"/>
  <line x1="0" y1="280" x2="2179.2000000000003" y2="280" stroke="#c8d0e8" stroke-width="1" stroke-dasharray="4,4"/>
  <g transform="translate(15.0,280) scale(0.27,-0.27)"><path d="M30 180C30 500 190 500 190 180H138C138 442 82 442 82 180H30ZM210 180C210 500 370 500 370 180H318C318 442 262 442 262 180H210ZM370 180C370 500 570 500 570 180H518C518 442 422 442 422 180H370ZM570 180C570 -140 770 -140 770 180H718C718 -82 622 -82 622 180H570Z" fill="#1a3a6e"/></g><g transform="translate(231.0,280) scale(0.27,-0.27)"><path d="M30 0C30 320 190 320 190 0H138C138 262 82 262 82 0H30ZM210 0C210 320 370 320 370 0H318C318 262 262 262 262 0H210ZM370 0C370 -320 570 -320 570 0H518C518 -262 422 -262 422 0H370ZM570 0C570 -320 770 -320 770 0H718C718 -262 622 -262 622 0H570Z" fill="#1a3a6e"/></g><g transform="translate(447.0,280) scale(0.27,-0.27)"><path d="M30 0C30 320 230 320 230 0H178C178 262 82 262 82 0H30ZM230 0C230 320 430 320 430 0H378C378 262 282 262 282 0H230ZM430 0C430 -320 630 -320 630 0H578C578 -262 482 -262 482 0H430ZM630 0C630 320 830 320 830 0H778C778 262 682 262 682 0H630Z" fill="#1a3a6e"/></g><g transform="translate(679.2,280) scale(0.27,-0.27)"><path d="M30 0C30 320 230 320 230 0H178C178 262 82 262 82 0H30ZM230 0C230 -320 430 -320 430 0H378C378 -262 282 -262 282 0H230ZM430 0C430 320 630 320 630 0H578C578 262 482 262 482 0H430ZM630 0C630 -320 830 -320 830 0H778C778 -262 682 -262 682 0H630ZM830 0C830 320 1030 320 1030 0H978C978 262 882 262 882 0H830Z" fill="#1a3a6e"/></g><g transform="translate(965.4,280) scale(0.27,-0.27)"><path d="M30 0C30 320 230 320 230 0H178C178 262 82 262 82 0H30ZM230 0C230 320 430 320 430 0H378C378 262 282 262 282 0H230ZM430 0C430 -320 630 -320 630 0H578C578 -262 482 -262 482 0H430Z" fill="#1a3a6e"/></g><g transform="translate(1143.6,280) scale(0.27,-0.27)"><path d="M30 0C30 320 190 320 190 0H138C138 262 82 262 82 0H30ZM210 0C210 320 370 320 370 0H318C318 262 262 262 262 0H210ZM370 0C370 320 530 320 530 0H478C478 262 422 262 422 0H370ZM550 0C550 320 710 320 710 0H658C658 262 602 262 602 0H550Z" fill="#1a3a6e"/></g><g transform="translate(1343.4,280) scale(0.27,-0.27)"><path d="M48 -18H72C82 -18 90 -8 90 0C90 8 82 18 72 18H48C38 18 30 8 30 0C30 -8 38 -18 48 -18Z" fill="#1a3a6e"/></g><g transform="translate(1375.8,280) scale(0.27,-0.27)"><path d="M30 180C30 500 190 500 190 180H138C138 442 82 442 82 180H30ZM210 180C210 500 370 500 370 180H318C318 442 262 442 262 180H210ZM370 180C370 500 570 500 570 180H518C518 442 422 442 422 180H370Z" fill="#1a3a6e"/></g><g transform="translate(1537.8,280) scale(0.27,-0.27)"><path d="M30 0C30 320 230 320 230 0H178C178 262 82 262 82 0H30ZM230 0C230 320 390 320 390 0H338C338 262 282 262 282 0H230ZM410 0C410 320 570 320 570 0H518C518 262 462 262 462 0H410ZM570 0C570 -320 770 -320 770 0H718C718 -262 622 -262 622 0H570Z" fill="#1a3a6e"/></g><g transform="translate(1753.8,280) scale(0.27,-0.27)"><path d="M30 0C30 -320 230 -320 230 0H178C178 -262 82 -262 82 0H30ZM230 0C230 -320 430 -320 430 0H378C378 -262 282 -262 282 0H230ZM430 0C430 320 630 320 630 0H578C578 262 482 262 482 0H430ZM630 0C630 320 830 320 830 0H778C778 262 682 262 682 0H630Z" fill="#1a3a6e"/></g><g transform="translate(1986.0,280) scale(0.27,-0.27)"><path d="M30 0C30 320 230 320 230 0H178C178 262 82 262 82 0H30ZM230 0C230 -320 430 -320 430 0H378C378 -262 282 -262 282 0H230ZM430 0C430 320 630 320 630 0H578C578 262 482 262 482 0H430Z" fill="#1a3a6e"/></g>
</svg>