<svg xmlns="http://www.w3.org/2000/svg" width="2410" height="380">
  <rect width="100%" height="100%" fill="#f0f4ff"/>
  <line x1="0" y1="220" x2="2409.6000000000004" y2="220" stroke="#c8d0e8" stroke-width="1" stroke-dasharray="4,4"/>
  <g transform="translate(20.0,220) scale(0.28,-0.28)"><path d="M30 0C30 343 190 343 190 0H138C138 284 82 284 82 0H30ZM210 0C210 343 370 343 370 0H318C318 284 262 284 262 0H210ZM370 0C370 343 570 343 570 0H518C518 284 422 284 422 0H370ZM570 0C570 -343 770 -343 770 0H718C718 -284 622 -284 622 0H570Z" fill="#1a3a6e"/></g><rect x="244.0" y="217" width="16" height="7" fill="#1a3a6e"/><g transform="translate(260.8,220) scale(0.28,-0.28)"><path d="M30 0C30 343 190 343 190 0H138C138 284 82 284 82 0H30ZM210 0C210 343 370 343 370 0H318C318 284 262 284 262 0H210ZM370 0C370 -343 570 -343 570 0H518C518 -284 422 -284 422 0H370ZM570 0C570 -343 770 -343 770 0H718C718 -284 622 -284 622 0H570Z" fill="#1a3a6e"/></g><rect x="484.8" y="217" width="16" height="7" fill="#1a3a6e"/><g transform="translate(501.6,220) scale(0.28,-0.28)"><path d="M30 0C30 343 230 343 230 0H178C178 284 82 284 82 0H30ZM230 0C230 343 430 343 430 0H378C378 284 282 284 282 0H230ZM430 0C430 -343 630 -343 630 0H578C578 -284 482 -284 482 0H430ZM630 0C630 343 830 343 830 0H778C778 284 682 284 682 0H630Z" fill="#1a3a6e"/></g><rect x="742.4" y="217" width="16" height="7" fill="#1a3a6e"/><g transform="translate(759.2,220) scale(0.28,-0.28)"><path d="M30 0C30 343 230 343 230 0H178C178 284 82 284 82 0H30ZM230 0C230 -343 430 -343 430 0H378C378 -284 282 -284 282 0H230ZM430 0C430 343 630 343 630 0H578C578 284 482 284 482 0H430ZM630 0C630 -343 830 -343 830 0H778C778 -284 682 -284 682 0H630ZM830 0C830 343 1030 343 1030 0H978C978 284 882 284 882 0H830Z" fill="#1a3a6e"/></g><rect x="1056.0" y="217" width="16" height="7" fill="#1a3a6e"/><g transform="translate(1072.8,220) scale(0.28,-0.28)"><path d="M30 0C30 343 230 343 230 0H178C178 284 82 284 82 0H30ZM230 0C230 343 430 343 430 0H378C378 284 282 284 282 0H230ZM430 0C430 -343 630 -343 630 0H578C578 -284 482 -284 482 0H430Z" fill="#1a3a6e"/></g><rect x="1257.6" y="217" width="16" height="7" fill="#1a3a6e"/><g transform="translate(1274.4,220) scale(0.28,-0.28)"><path d="M30 0C30 343 190 343 190 0H138C138 284 82 284 82 0H30ZM210 0C210 343 370 343 370 0H318C318 284 262 284 262 0H210ZM370 0C370 343 530 343 530 0H478C478 284 422 284 422 0H370ZM550 0C550 343 710 343 710 0H658C658 284 602 284 602 0H550Z" fill="#1a3a6e"/></g><g transform="translate(1521.6,220) scale(0.28,-0.28)"><path d="M30 0C30 343 190 343 190 0H138C138 284 82 284 82 0H30ZM210 0C210 343 370 343 370 0H318C318 284 262 284 262 0H210ZM370 0C370 343 570 343 570 0H518C518 284 422 284 422 0H370Z" fill="#1a3a6e"/></g><rect x="1689.6" y="217" width="16" height="7" fill="#1a3a6e"/><g transform="translate(1706.4,220) scale(0.28,-0.28)"><path d="M30 0C30 343 230 343 230 0H178C178 284 82 284 82 0H30ZM230 0C230 343 390 343 390 0H338C338 284 282 284 282 0H230ZM410 0C410 343 570 343 570 0H518C518 284 462 284 462 0H410ZM570 0C570 -343 770 -343 770 0H718C718 -284 622 -284 622 0H570Z" fill="#1a3a6e"/></g><rect x="1930.4" y="217" width="16" height="7" fill="#1a3a6e"/><g transform="translate(1947.2,220) scale(0.28,-0.28)"><path d="M30 0C30 -343 230 -343 230 0H178C178 -284 82 -284 82 0H30ZM230 0C230 -343 430 -343 430 0H378C378 -284 282 -284 282 0H230ZM430 0C430 343 630 343 630 0H578C578 284 482 284 482 0H430ZM630 0C630 343 830 343 830 0H778C778 284 682 284 682 0H630Z" fill="#1a3a6e"/></g><rect x="2188.0" y="217" width="16" height="7" fill="#1a3a6e"/><g transform="translate(2204.8,220) scale(0.28,-0.28)"><path d="M30 0C30 343 230 343 230 0H178C178 284 82 284 82 0H30ZM230 0C230 -343 430 -343 430 0H378C378 -284 282 -284 282 0H230ZM430 0C430 343 630 343 630 0H578C578 284 482 284 482 0H430Z" fill="#1a3a6e"/></g>
</svg>